<?xml version="1.0" encoding="utf-8"?>

<!DOCTYPE svg PUBLIC "-//W3C//DTD SVG 1.1//EN" "http://www.w3.org/Graphics/SVG/1.1/DTD/svg11.dtd">
<!-- Uploaded to: SVG Repo, www.svgrepo.com, Generator: SVG Repo Mixer Tools -->
<svg height="800px" width="800px" version="1.1" id="_x32_" xmlns="http://www.w3.org/2000/svg" xmlns:xlink="http://www.w3.org/1999/xlink" 
	 viewBox="0 0 512 512"  xml:space="preserve">
<style type="text/css">
	.st0{fill:#000000;}
</style>
<g>
	<path class="st0" d="M470.098,289.729c-28.645-0.328-61.446,22.392-61.446,22.392l11.327-188.512
		c0.876-14.738-9.62-27.727-24.206-29.958c0,0-28.142-23.222-139.772-23.222c-111.651,0-139.771,23.222-139.771,23.222
		c-14.607,2.23-25.103,15.22-24.206,29.958l11.304,188.512c0,0-32.8-22.72-61.423-22.392c-28.712,0.34-53.223,23.758-36.408,53.18
		c45.33,79.343,168.111,98.662,259.601,98.662c91.468,0,196.056-19.319,241.408-98.662
		C523.321,313.488,498.787,290.069,470.098,289.729z"/>
</g>
</svg>